<?xml version="1.0" encoding="UTF-8" standalone="no"?>
<!-- Created with Inkscape (http://www.inkscape.org/) -->

<svg
   xmlns:dc="http://purl.org/dc/elements/1.1/"
   xmlns:cc="http://creativecommons.org/ns#"
   xmlns:rdf="http://www.w3.org/1999/02/22-rdf-syntax-ns#"
   xmlns:svg="http://www.w3.org/2000/svg"
   xmlns="http://www.w3.org/2000/svg"
   version="1.1"
   width="531.49561"
   height="192.57062"
   id="svg5567">
  <defs
     id="defs5569">
    <clipPath
       id="clipPath2402">
      <path
         d="m 0,841.89 595.276,0 L 595.276,0 0,0 0,841.89 z"
         id="path2404" />
    </clipPath>
    <clipPath
       id="clipPath2382">
      <path
         d="m 167.674,685.688 c -4.781,-4.088 -9.703,-8.604 -14.203,-13.878 l 0,0 c -2.631,-3.073 10,-1.8 15.764,1.673 l 0,0 c 5.814,3.502 11.798,8.189 17.171,13.641 l 0,0 c 1.688,1.713 -0.283,2.431 -3.535,2.431 l 0,0 c -4.845,0 -12.535,-1.594 -15.197,-3.867 M 139.371,657.586 C 115.868,633.93 92.207,607.537 85.535,586.993 l 0,0 c -3.687,-11.358 -0.284,-21.562 13.829,-21.562 l 0,0 c 11.586,0 24.419,5.74 35.318,12.556 l 0,0 c -2.68,-3.656 -5.13,-6.977 -7.095,-9.651 l 0,0 c -3.076,-4.167 12.519,-2.644 15.808,1.554 l 0,0 c 12.335,15.777 41.969,35.189 50.221,35.189 l 0,0 c 7.508,0 -18.357,-19.383 -18.117,-31.248 l 0,0 c 0.3,-15.583 36.394,-6.039 48.642,9.999 l 0,0 c 1.92,2.5 0.422,9.389 -1.307,7.713 l 0,0 c -5.603,-5.474 -17.872,-14.635 -28.595,-14.635 l 0,0 c -7.932,0 7.867,14.21 15.69,25.666 l 0,0 c 7.468,10.944 1.361,14.221 -4.806,14.221 l 0,0 c -15.269,0 -30.182,-10.717 -40.293,-18.254 l 0,0 c 3.054,4.089 7.809,9.332 12.881,16.026 l 0,0 c 2.81,3.717 -14.025,2.384 -18.333,-3.288 l 0,0 c -1.373,-1.795 -2.887,-3.809 -4.502,-5.961 l 0,0 c -14.61,-17.563 -36.681,-29.412 -47.511,-29.412 l 0,0 c -6.037,0 -8.234,4.157 -4.476,12.016 l 0,0 c 9.057,18.948 40.266,54.953 57.228,70.718 l 0,0 c 3.265,3.06 0.985,4.294 -3.129,4.294 l 0,0 c -5.588,0 -14.56,-2.277 -17.617,-5.348 m 199.818,-15.21 c -4.789,-4.094 -12.747,-11.426 -17.25,-16.703 l 0,0 c -2.624,-3.078 8.1,-2.769 13.864,0.701 l 0,0 c 5.81,3.501 16.74,11.986 22.119,17.436 l 0,0 c 1.688,1.713 -0.286,2.431 -3.539,2.431 l 0,0 c -4.847,0 -12.534,-1.593 -15.194,-3.865 M 229.936,599.812 c -2.419,-2.841 -1.167,-9.955 1.332,-7.486 l 0,0 c 15.649,15.481 15.293,14.22 36.009,14.22 l 0,0 c -3.331,-3.538 -9.267,-7.068 -19.337,-19.847 l 0,0 c -8.972,-11.401 -3.102,-20.615 9.64,-20.615 l 0,0 c 7.046,0 17.563,3.305 27.183,10.084 l 0,0 c -1.152,-5.94 1.233,-10.192 10.306,-10.192 l 0,0 c 10.511,0 22.513,6.253 32.458,13.207 l 0,0 c -1.246,-7.544 2.637,-13.207 13.764,-13.207 l 0,0 c 8.561,0 18.529,3.362 28.82,12.284 l 0,0 c -0.054,-6.818 4.754,-12.233 13.717,-12.233 l 0,0 c 21.824,0 97.199,27.374 123.424,11.565 l 0,0 c 3.283,-1.972 3.137,8.303 -3.479,12.417 l 0,0 C 480.09,604.764 415.322,579.051 390.756,576.121 l 0,0 c -4.604,-0.55 -6.28,0.612 -5.193,3.736 l 0,0 c 2.083,6.023 10.295,17.1 11.947,20.915 l 0,0 c 1.558,3.643 1.346,16.165 -17.176,16.165 l 0,0 c -15.135,0 -29.02,-7.028 -38.779,-15.875 l 0,0 c -9.299,-7.93 -27.315,-23.62 -38.406,-23.62 l 0,0 c -11.48,0 22.144,34.687 24.001,36.437 l 0,0 c 4.999,4.689 -10.759,3.532 -17.381,-1.512 l 0,0 c -2.644,-2.013 -13.214,-13.317 -19.825,-24.265 l 0,0 c -19.121,-13.217 -38.156,-16.285 -29.098,-5.298 l 0,0 c 4.814,5.856 12.962,13.699 18.566,19.912 l 0,0 c 7.822,8.676 6.41,14.384 -10.863,14.384 l 0,0 c -23.122,0 -25.568,-2.012 -38.613,-17.288 m 150.232,8.687 c 11.175,0 -19.211,-32.702 -33.012,-32.702 l 0,0 c -14.31,0 14.346,32.702 33.012,32.702"
         id="path2384" />
    </clipPath>
    <radialGradient
       cx="0"
       cy="0"
       r="1"
       fx="0"
       fy="0"
       id="radialGradient2390"
       gradientUnits="userSpaceOnUse"
       gradientTransform="matrix(185.08243,0,0,-185.08243,255.94824,458.87207)"
       spreadMethod="pad">
      <stop
         id="stop2392"
         style="stop-color:#fecd1b;stop-opacity:1"
         offset="0" />
      <stop
         id="stop2394"
         style="stop-color:#e20026;stop-opacity:1"
         offset="1" />
    </radialGradient>
  </defs>
  <metadata
     id="metadata5572">
    <rdf:RDF>
      <cc:Work
         rdf:about="">
        <dc:format>image/svg+xml</dc:format>
        <dc:type
           rdf:resource="http://purl.org/dc/dcmitype/StillImage" />
        <dc:title></dc:title>
      </cc:Work>
    </rdf:RDF>
  </metadata>
  <g
     transform="translate(345.7478,-184.64825)"
     id="layer1">
    <g
       transform="matrix(1.25,0,0,-1.25,-450.94158,1046.592)"
       id="g2378">
      <g
         clip-path="url(#clipPath2382)"
         id="g2380">
        <g
           id="g2386">
          <g
             id="g2388">
            <path
               d="m 167.674,685.688 c -4.781,-4.088 -9.703,-8.604 -14.203,-13.878 l 0,0 c -2.631,-3.073 10,-1.8 15.764,1.673 l 0,0 c 5.814,3.502 11.798,8.189 17.171,13.641 l 0,0 c 1.688,1.713 -0.283,2.431 -3.535,2.431 l 0,0 c -4.845,0 -12.535,-1.594 -15.197,-3.867 M 139.371,657.586 C 115.868,633.93 92.207,607.537 85.535,586.993 l 0,0 c -3.687,-11.358 -0.284,-21.562 13.829,-21.562 l 0,0 c 11.586,0 24.419,5.74 35.318,12.556 l 0,0 c -2.68,-3.656 -5.13,-6.977 -7.095,-9.651 l 0,0 c -3.076,-4.167 12.519,-2.644 15.808,1.554 l 0,0 c 12.335,15.777 41.969,35.189 50.221,35.189 l 0,0 c 7.508,0 -18.357,-19.383 -18.117,-31.248 l 0,0 c 0.3,-15.583 36.394,-6.039 48.642,9.999 l 0,0 c 1.92,2.5 0.422,9.389 -1.307,7.713 l 0,0 c -5.603,-5.474 -17.872,-14.635 -28.595,-14.635 l 0,0 c -7.932,0 7.867,14.21 15.69,25.666 l 0,0 c 7.468,10.944 1.361,14.221 -4.806,14.221 l 0,0 c -15.269,0 -30.182,-10.717 -40.293,-18.254 l 0,0 c 3.054,4.089 7.809,9.332 12.881,16.026 l 0,0 c 2.81,3.717 -14.025,2.384 -18.333,-3.288 l 0,0 c -1.373,-1.795 -2.887,-3.809 -4.502,-5.961 l 0,0 c -14.61,-17.563 -36.681,-29.412 -47.511,-29.412 l 0,0 c -6.037,0 -8.234,4.157 -4.476,12.016 l 0,0 c 9.057,18.948 40.266,54.953 57.228,70.718 l 0,0 c 3.265,3.06 0.985,4.294 -3.129,4.294 l 0,0 c -5.588,0 -14.56,-2.277 -17.617,-5.348 m 199.818,-15.21 c -4.789,-4.094 -12.747,-11.426 -17.25,-16.703 l 0,0 c -2.624,-3.078 8.1,-2.769 13.864,0.701 l 0,0 c 5.81,3.501 16.74,11.986 22.119,17.436 l 0,0 c 1.688,1.713 -0.286,2.431 -3.539,2.431 l 0,0 c -4.847,0 -12.534,-1.593 -15.194,-3.865 M 229.936,599.812 c -2.419,-2.841 -1.167,-9.955 1.332,-7.486 l 0,0 c 15.649,15.481 15.293,14.22 36.009,14.22 l 0,0 c -3.331,-3.538 -9.267,-7.068 -19.337,-19.847 l 0,0 c -8.972,-11.401 -3.102,-20.615 9.64,-20.615 l 0,0 c 7.046,0 17.563,3.305 27.183,10.084 l 0,0 c -1.152,-5.94 1.233,-10.192 10.306,-10.192 l 0,0 c 10.511,0 22.513,6.253 32.458,13.207 l 0,0 c -1.246,-7.544 2.637,-13.207 13.764,-13.207 l 0,0 c 8.561,0 18.529,3.362 28.82,12.284 l 0,0 c -0.054,-6.818 4.754,-12.233 13.717,-12.233 l 0,0 c 21.824,0 97.199,27.374 123.424,11.565 l 0,0 c 3.283,-1.972 3.137,8.303 -3.479,12.417 l 0,0 C 480.09,604.764 415.322,579.051 390.756,576.121 l 0,0 c -4.604,-0.55 -6.28,0.612 -5.193,3.736 l 0,0 c 2.083,6.023 10.295,17.1 11.947,20.915 l 0,0 c 1.558,3.643 1.346,16.165 -17.176,16.165 l 0,0 c -15.135,0 -29.02,-7.028 -38.779,-15.875 l 0,0 c -9.299,-7.93 -27.315,-23.62 -38.406,-23.62 l 0,0 c -11.48,0 22.144,34.687 24.001,36.437 l 0,0 c 4.999,4.689 -10.759,3.532 -17.381,-1.512 l 0,0 c -2.644,-2.013 -13.214,-13.317 -19.825,-24.265 l 0,0 c -19.121,-13.217 -38.156,-16.285 -29.098,-5.298 l 0,0 c 4.814,5.856 12.962,13.699 18.566,19.912 l 0,0 c 7.822,8.676 6.41,14.384 -10.863,14.384 l 0,0 c -23.122,0 -25.568,-2.012 -38.613,-17.288 m 150.232,8.687 c 11.175,0 -19.211,-32.702 -33.012,-32.702 l 0,0 c -14.31,0 14.346,32.702 33.012,32.702"
               id="path2396"
               style="fill:url(#radialGradient2390);stroke:none" />
          </g>
        </g>
      </g>
    </g>
    <g
       transform="matrix(1.25,0,0,-1.25,-450.94158,1046.592)"
       id="g2398">
      <g
         clip-path="url(#clipPath2402)"
         id="g2400">
        <g
           transform="translate(213.0684,551.8472)"
           id="g2406">
          <path
             d="m 0,0 -0.96,0 c -0.257,0 -0.421,-0.214 -0.421,-0.436 l 0,-12.312 c 0,-0.242 0.178,-0.452 0.421,-0.454 l 0.96,0 c 0.264,0.002 0.419,0.236 0.421,0.454 l 0,12.312 C 0.419,-0.191 0.234,0 0,0"
             id="path2408"
             style="fill:#e20514;fill-opacity:1;fill-rule:nonzero;stroke:none" />
        </g>
        <g
           transform="translate(225.5737,551.8477)"
           id="g2410">
          <path
             d="m 0,0 -0.927,0 c -0.24,-0.002 -0.418,-0.208 -0.42,-0.436 l 0,-9.91 -5.224,9.941 C -6.704,-0.128 -6.887,0.017 -7.378,0 l -0.964,0 c -0.332,0 -0.611,-0.254 -0.611,-0.595 l 0,-12.293 c 0,-0.258 0.248,-0.313 0.42,-0.313 l 0.908,0 c 0.243,0.002 0.418,0.207 0.418,0.436 l 0,9.925 5.277,-10.027 c 0.108,-0.215 0.345,-0.334 0.645,-0.334 l 0.008,0 1.084,0 c 0.338,0 0.611,0.273 0.611,0.611 l 0,12.154 C 0.418,-0.216 0.255,0 0,0"
             id="path2412"
             style="fill:#e20514;fill-opacity:1;fill-rule:nonzero;stroke:none" />
        </g>
        <g
           transform="translate(237.6392,551.8477)"
           id="g2414">
          <path
             d="m 0,0 -1.033,0 c -0.203,-0.004 -0.35,-0.163 -0.397,-0.341 l -3.061,-11.138 c -0.076,-0.24 -0.121,-0.287 -0.231,-0.291 -0.132,0.006 -0.174,0.053 -0.251,0.291 L -8.014,-0.338 C -8.064,-0.155 -8.23,-0.004 -8.43,0 l -1.014,0 c -0.223,0 -0.418,-0.167 -0.418,-0.402 0,-0.033 -0.002,-0.092 0.029,-0.153 l 3.228,-11.364 c 0.324,-1.153 1.216,-1.412 1.883,-1.406 l 0.023,0 c 0.68,0 1.54,0.266 1.861,1.406 l 3.214,11.372 c 0.026,0.059 0.026,0.113 0.026,0.145 C 0.402,-0.175 0.225,0 0,0"
             id="path2416"
             style="fill:#e20514;fill-opacity:1;fill-rule:nonzero;stroke:none" />
        </g>
        <g
           transform="translate(247.0293,551.8643)"
           id="g2418">
          <path
             d="M 0,0 C -0.752,0.071 -2.392,0.106 -3.426,0.106 -5.898,0.102 -7.254,-0.878 -7.256,-3.25 l 0,-6.734 c 0.002,-2.374 1.358,-3.354 3.83,-3.356 1.034,0 2.744,0.016 3.42,0.087 L -0.019,-13.15 0,-13.253 c 0.178,0.039 0.259,0.203 0.262,0.348 l 0,0.892 c 0,0.162 -0.117,0.315 -0.297,0.315 l -3.375,0 c -1.842,0.032 -2.016,0.403 -2.047,1.714 l 0,2.834 5.265,0 c 0.249,0 0.454,0.204 0.454,0.453 l 0,0.664 c 0,0.251 -0.203,0.456 -0.454,0.456 l -5.265,0 0,2.327 c 0.031,1.311 0.205,1.681 2.047,1.713 l 3.375,0 c 0.18,0 0.297,0.154 0.297,0.313 l 0,0.874 C 0.259,-0.202 0.178,-0.039 0,0"
             id="path2420"
             style="fill:#e20514;fill-opacity:1;fill-rule:nonzero;stroke:none" />
        </g>
        <g
           transform="translate(258.8008,551.8472)"
           id="g2422">
          <path
             d="m 0,0 -0.929,0 c -0.239,-0.002 -0.417,-0.207 -0.417,-0.436 l 0,-9.907 -5.226,9.938 C -6.703,-0.127 -6.889,0.017 -7.38,0 l -0.961,0 c -0.334,0 -0.612,-0.253 -0.614,-0.593 l 0,-12.294 c 0.002,-0.26 0.249,-0.315 0.421,-0.315 l 0.909,0 c 0.239,0.004 0.417,0.208 0.419,0.437 l 0,9.922 5.276,-10.024 c 0.108,-0.213 0.345,-0.335 0.646,-0.335 l 0.007,0 1.085,0 c 0.337,0 0.609,0.274 0.609,0.611 l 0,12.155 C 0.417,-0.215 0.255,0 0,0"
             id="path2424"
             style="fill:#e20514;fill-opacity:1;fill-rule:nonzero;stroke:none" />
        </g>
        <g
           transform="translate(269.6943,551.8481)"
           id="g2426">
          <path
             d="m 0,0 -8.412,0 c -0.241,0 -0.452,-0.178 -0.455,-0.42 l 0,-0.77 c 0,-0.263 0.238,-0.383 0.455,-0.383 l 3.305,0 0,-11.176 c 0,-0.242 0.178,-0.453 0.42,-0.455 l 0.96,0 c 0.265,0.004 0.42,0.236 0.42,0.455 l 0,11.176 3.307,0 c 0.226,0 0.435,0.143 0.437,0.383 l 0,0.77 C 0.435,-0.172 0.236,0 0,0"
             id="path2428"
             style="fill:#e20514;fill-opacity:1;fill-rule:nonzero;stroke:none" />
        </g>
        <g
           transform="translate(279.1201,551.8647)"
           id="g2430">
          <path
             d="m 0,0 c -0.751,0.07 -2.394,0.105 -3.427,0.105 -2.472,-0.002 -3.827,-0.982 -3.83,-3.357 l 0,-6.734 c 0.003,-2.373 1.358,-3.351 3.83,-3.355 1.033,0 2.742,0.016 3.421,0.088 L -0.019,-13.151 0,-13.253 c 0.178,0.039 0.258,0.203 0.26,0.348 l 0,0.892 c 0,0.16 -0.114,0.314 -0.295,0.314 l -3.376,0 c -1.839,0.033 -2.016,0.402 -2.047,1.713 l 0,2.834 5.267,0 c 0.248,0 0.451,0.206 0.451,0.456 l 0,0.662 c 0,0.252 -0.203,0.455 -0.451,0.455 l -5.267,0 0,2.327 c 0.031,1.312 0.208,1.681 2.047,1.714 l 3.376,0 c 0.179,0 0.295,0.154 0.295,0.314 l 0,0.875 C 0.258,-0.203 0.178,-0.039 0,0"
             id="path2432"
             style="fill:#e20514;fill-opacity:1;fill-rule:nonzero;stroke:none" />
        </g>
        <g
           transform="translate(290.6104,551.8477)"
           id="g2434">
          <path
             d="M 0,0 -0.942,0 C -1.197,0 -1.38,-0.208 -1.38,-0.438 l 0,-7.938 c -0.02,-2.262 -0.649,-3.36 -2.765,-3.377 -2.113,0.017 -2.744,1.134 -2.762,3.377 l 0,7.938 C -6.909,-0.183 -7.115,0 -7.345,0 L -8.29,0 c -0.252,0 -0.435,-0.208 -0.435,-0.438 l 0,-7.938 c 0.004,-3.374 1.707,-4.944 4.58,-4.948 2.876,0.004 4.577,1.574 4.583,4.948 l 0,7.938 C 0.436,-0.185 0.23,0 0,0"
             id="path2436"
             style="fill:#e20514;fill-opacity:1;fill-rule:nonzero;stroke:none" />
        </g>
        <g
           transform="translate(300.7744,548.1055)"
           id="g2438">
          <path
             d="m 0,0 0,-0.122 c -0.015,-1.826 -1.072,-2.307 -3.219,-2.328 -0.382,0 -1.086,0.017 -1.819,0.033 l 0,4.597 c 0.446,0.042 1.315,0.042 1.819,0.042 C -1.037,2.203 -0.013,1.683 0,0 m -0.909,-3.719 c 1.557,0.453 2.696,1.649 2.69,3.597 l 0,0.122 c -0.004,2.904 -2.225,3.861 -5,3.865 -1.018,0 -2.328,-0.053 -3.09,-0.14 -0.329,-0.018 -0.53,-0.205 -0.512,-0.49 l 0,-12.24 c 0,-0.243 0.177,-0.453 0.42,-0.455 l 0.944,0 c 0.263,0.002 0.419,0.234 0.419,0.455 l 0,5.033 c 0.851,-0.032 1.262,-0.049 1.819,-0.049 l 0.296,0 0.098,0 3.102,-5.161 c 0.126,-0.229 0.299,-0.28 0.477,-0.28 0.021,0 0.044,10e-4 0.066,0.002 l 1.119,0 c 0.198,0 0.332,0.161 0.332,0.331 10e-4,0.076 -0.025,0.15 -0.071,0.216 l -3.109,5.194 z"
             id="path2440"
             style="fill:#e20514;fill-opacity:1;fill-rule:nonzero;stroke:none" />
        </g>
        <g
           transform="translate(310.1133,545.7822)"
           id="g2442">
          <path
             d="m 0,0 -1.608,0.962 c -1.332,0.807 -1.858,1.268 -1.856,2.026 0.013,1.209 0.663,1.537 2.468,1.557 1.009,0 2.232,-0.053 3,-0.105 l 0.041,0 c 0.217,0 0.402,0.155 0.402,0.385 l 0,0.752 C 2.451,5.812 2.26,5.946 2.066,5.977 1.389,6.083 0.042,6.188 -0.996,6.188 -3.672,6.185 -5.275,5.171 -5.28,2.988 -5.284,1.541 -4.434,0.607 -2.817,-0.371 l 1.695,-1.031 c 1.596,-0.987 2.047,-1.44 2.049,-2.255 -0.019,-1.184 -0.48,-1.938 -2.551,-1.959 -0.804,0 -2.08,0.035 -2.878,0.103 l -0.061,0 c -0.194,0 -0.404,-0.13 -0.404,-0.383 l 0,-0.698 c -0.024,-0.21 0.113,-0.393 0.42,-0.418 0.775,-0.124 1.689,-0.247 2.923,-0.247 3.484,0.004 4.417,1.886 4.421,3.602 C 2.801,-2.214 2.037,-1.207 0,0"
             id="path2444"
             style="fill:#e20514;fill-opacity:1;fill-rule:nonzero;stroke:none" />
        </g>
        <g
           transform="translate(327.3926,546.4268)"
           id="g2446">
          <path
             d="m 0,0 0,-2.361 c -0.017,-3.107 -1.533,-3.953 -3.599,-3.97 -0.778,0 -1.317,0 -1.84,0.03 l 0,10.225 c 0.54,0.032 1.063,0.046 1.84,0.046 C -1.533,3.954 -0.017,3.126 0,0 m -3.599,5.542 c -1.338,0 -2.682,-0.086 -3.203,-0.175 -0.27,-0.035 -0.46,-0.256 -0.454,-0.54 l 0,-12.014 c -0.01,-0.301 0.191,-0.51 0.456,-0.541 0.519,-0.088 1.863,-0.175 3.201,-0.175 3.271,0.004 5.394,1.758 5.4,5.542 l 0,2.361 c -0.006,3.819 -2.131,5.539 -5.4,5.542"
             id="path2448"
             style="fill:#e20514;fill-opacity:1;fill-rule:nonzero;stroke:none" />
        </g>
        <g
           transform="translate(340.459,551.8477)"
           id="g2450">
          <path
             d="m 0,0 -0.944,0 c -0.254,0 -0.437,-0.207 -0.437,-0.436 l 0,-7.941 c -0.02,-2.259 -0.648,-3.358 -2.765,-3.374 -2.114,0.014 -2.744,1.132 -2.764,3.374 l 0,7.941 C -6.91,-0.186 -7.115,0 -7.344,0 l -0.944,0 c -0.253,0 -0.439,-0.207 -0.439,-0.436 l 0,-7.941 c 0.004,-3.374 1.706,-4.943 4.581,-4.947 2.875,0.004 4.578,1.573 4.582,4.947 l 0,7.941 C 0.436,-0.184 0.229,0 0,0"
             id="path2452"
             style="fill:#e20514;fill-opacity:1;fill-rule:nonzero;stroke:none" />
        </g>
        <g
           transform="translate(358.7529,551.8477)"
           id="g2454">
          <path
             d="m 0,0 -1.136,0 c -0.322,0.01 -0.546,-0.097 -0.656,-0.358 l -2.885,-5.996 c -0.081,-0.155 -0.066,-0.126 -0.114,-0.135 -0.048,0.009 -0.037,-0.02 -0.116,0.131 l -2.885,6.002 C -7.901,-0.097 -8.123,0.01 -8.444,0 l -1.139,0 c -0.338,0 -0.611,-0.275 -0.611,-0.613 l 0,-12.135 c 0,-0.25 0.205,-0.453 0.454,-0.455 l 0.857,0 c 0.25,0.002 0.453,0.205 0.453,0.455 l 0,10.041 2.355,-4.875 c 0.174,-0.365 0.417,-0.576 0.883,-0.565 l 0.803,0 c 0.464,-0.011 0.708,0.2 0.88,0.563 l 2.357,4.877 0,-10.041 c 0,-0.25 0.203,-0.453 0.454,-0.455 l 0.857,0 c 0.25,0 0.455,0.205 0.455,0.455 l 0,12.135 C 0.614,-0.273 0.339,0 0,0"
             id="path2456"
             style="fill:#e20514;fill-opacity:1;fill-rule:nonzero;stroke:none" />
        </g>
        <g
           transform="translate(363.8076,546.375)"
           id="g2458">
          <path
             d="M 0,0 C 0.017,2.912 1.172,3.939 3.028,3.951 4.899,3.939 6.02,2.915 6.036,0 l 0,-2.256 C 6.02,-5.171 4.883,-6.195 3.028,-6.21 1.153,-6.195 0.017,-5.171 0,-2.256 L 0,0 z M 3.028,5.594 C 0.238,5.59 -1.811,3.918 -1.814,0 l 0,-2.256 c 0.003,-3.919 2.052,-5.59 4.842,-5.597 2.79,0.007 4.821,1.678 4.826,5.597 L 7.854,0 C 7.849,3.918 5.818,5.59 3.028,5.594"
             id="path2460"
             style="fill:#e20514;fill-opacity:1;fill-rule:nonzero;stroke:none" />
        </g>
        <g
           transform="translate(383.2588,551.8481)"
           id="g2462">
          <path
             d="m 0,0 -0.927,0 c -0.243,-0.002 -0.42,-0.208 -0.42,-0.437 l 0,-9.911 -5.225,9.943 C -6.701,-0.127 -6.889,0.017 -7.381,0 l -0.961,0 c -0.331,0 -0.611,-0.256 -0.611,-0.594 l 0,-12.295 c 0,-0.257 0.247,-0.314 0.418,-0.314 l 0.911,0 c 0.241,0.002 0.418,0.208 0.418,0.436 l 0,9.926 5.278,-10.027 c 0.107,-0.213 0.343,-0.335 0.643,-0.335 l 0.008,0 1.084,0 c 0.336,0 0.612,0.275 0.612,0.611 l 0,12.155 C 0.419,-0.216 0.255,0 0,0"
             id="path2464"
             style="fill:#e20514;fill-opacity:1;fill-rule:nonzero;stroke:none" />
        </g>
        <g
           transform="translate(390.291,540.0952)"
           id="g2466">
          <path
             d="m 0,0 c -0.775,0 -1.313,0 -1.839,0.029 l 0,10.226 C -1.298,10.286 -0.774,10.301 0,10.301 2.068,10.284 3.584,9.457 3.604,6.332 l 0,-2.361 C 3.587,0.863 2.068,0.019 0,0 m 0,11.876 c -1.335,0 -2.682,-0.087 -3.201,-0.177 -0.269,-0.035 -0.462,-0.254 -0.456,-0.541 l 0,-12.013 c -0.008,-0.304 0.194,-0.51 0.458,-0.541 0.517,-0.089 1.864,-0.177 3.199,-0.177 3.272,0.007 5.398,1.76 5.404,5.544 l 0,2.361 C 5.398,10.151 3.272,11.87 0,11.876"
             id="path2468"
             style="fill:#e20514;fill-opacity:1;fill-rule:nonzero;stroke:none" />
        </g>
        <g
           transform="translate(405.542,551.8647)"
           id="g2470">
          <path
             d="M 0,0 C -0.752,0.071 -2.393,0.104 -3.428,0.104 -5.897,0.102 -7.254,-0.879 -7.256,-3.251 l 0,-6.733 c 0.002,-2.375 1.359,-3.353 3.828,-3.358 1.033,0 2.745,0.017 3.422,0.088 L -0.017,-13.151 0,-13.252 c 0.18,0.037 0.257,0.204 0.261,0.348 l 0,0.891 c 0,0.159 -0.115,0.314 -0.296,0.314 l -3.374,0 c -1.843,0.032 -2.018,0.403 -2.049,1.715 l 0,2.834 5.267,0 c 0.25,0 0.452,0.202 0.452,0.452 l 0,0.664 c 0,0.253 -0.202,0.457 -0.452,0.457 l -5.267,0 0,2.326 c 0.031,1.31 0.206,1.681 2.049,1.714 l 3.374,0 c 0.18,0 0.296,0.154 0.296,0.312 l 0,0.875 C 0.257,-0.204 0.18,-0.04 0,0"
             id="path2472"
             style="fill:#e20514;fill-opacity:1;fill-rule:nonzero;stroke:none" />
        </g>
        <g
           transform="translate(422.0693,551.8472)"
           id="g2474">
          <path
             d="m 0,0 -0.925,0 c -0.241,-0.002 -0.419,-0.207 -0.419,-0.437 l 0,-9.913 -5.225,9.945 c -0.132,0.28 -0.32,0.422 -0.81,0.405 l -0.96,0 C -8.673,0 -8.95,-0.255 -8.95,-0.595 l 0,-12.292 c 0,-0.259 0.246,-0.315 0.417,-0.315 l 0.91,0 c 0.239,0.002 0.417,0.206 0.419,0.436 l 0,9.926 5.278,-10.026 c 0.104,-0.215 0.342,-0.336 0.644,-0.336 l 0.007,0 1.084,0 c 0.337,0 0.609,0.275 0.609,0.612 l 0,12.153 C 0.418,-0.215 0.257,0 0,0"
             id="path2476"
             style="fill:#e20514;fill-opacity:1;fill-rule:nonzero;stroke:none" />
        </g>
        <g
           transform="translate(434.1201,551.8472)"
           id="g2478">
          <path
             d="M 0,0 -0.942,0 C -1.197,0 -1.38,-0.207 -1.38,-0.437 l 0,-7.939 c -0.02,-2.26 -0.647,-3.359 -2.763,-3.375 -2.117,0.014 -2.744,1.132 -2.764,3.375 l 0,7.939 C -6.907,-0.184 -7.114,0 -7.344,0 L -8.289,0 C -8.54,0 -8.726,-0.207 -8.726,-0.437 l 0,-7.939 c 0.004,-3.375 1.707,-4.943 4.583,-4.947 2.874,0.004 4.578,1.572 4.581,4.947 l 0,7.939 C 0.438,-0.184 0.231,0 0,0"
             id="path2480"
             style="fill:#e20514;fill-opacity:1;fill-rule:nonzero;stroke:none" />
        </g>
        <g
           transform="translate(447.6582,551.8491)"
           id="g2482">
          <path
             d="m 0,0 -1.137,0 c -0.324,0.01 -0.544,-0.099 -0.655,-0.36 l -2.885,-5.995 c -0.079,-0.156 -0.066,-0.126 -0.114,-0.135 -0.049,0.009 -0.034,-0.021 -0.115,0.132 l -2.887,6 C -7.902,-0.099 -8.124,0.01 -8.446,0 l -1.137,0 c -0.339,0 -0.611,-0.276 -0.611,-0.614 l 0,-12.135 c 0,-0.251 0.201,-0.454 0.454,-0.454 l 0.856,0 c 0.249,0 0.454,0.203 0.454,0.454 l 0,10.041 2.356,-4.876 c 0.171,-0.365 0.416,-0.576 0.881,-0.566 l 0.803,0 c 0.463,-0.01 0.71,0.201 0.879,0.566 l 2.358,4.877 0,-10.042 c 0,-0.251 0.201,-0.454 0.454,-0.454 l 0.856,0 c 0.249,0 0.454,0.203 0.454,0.454 l 0,12.135 C 0.611,-0.276 0.337,0 0,0"
             id="path2484"
             style="fill:#e20514;fill-opacity:1;fill-rule:nonzero;stroke:none" />
        </g>
        <g
           transform="translate(458.4668,551.8643)"
           id="g2486">
          <path
             d="M 0,0 C -0.75,0.071 -2.392,0.106 -3.427,0.106 -5.896,0.103 -7.252,-0.878 -7.256,-3.251 l 0,-6.735 c 0.004,-2.372 1.36,-3.351 3.829,-3.355 1.033,0 2.744,0.016 3.421,0.088 L -0.017,-13.15 0,-13.253 c 0.179,0.038 0.26,0.203 0.263,0.348 l 0,0.893 c 0,0.161 -0.117,0.314 -0.296,0.314 l -3.375,0 c -1.842,0.031 -2.016,0.403 -2.048,1.712 l 0,2.836 5.266,0 c 0.249,0 0.453,0.201 0.453,0.453 l 0,0.664 c 0,0.252 -0.204,0.455 -0.453,0.455 l -5.266,0 0,2.327 c 0.032,1.312 0.206,1.681 2.048,1.714 l 3.375,0 c 0.179,0 0.296,0.153 0.296,0.313 l 0,0.876 C 0.26,-0.202 0.179,-0.038 0,0"
             id="path2488"
             style="fill:#e20514;fill-opacity:1;fill-rule:nonzero;stroke:none" />
        </g>
        <g
           transform="translate(454.1826,552.5308)"
           id="g2490">
          <path
             d="m 0,0 0.945,0 c 0.004,0 0.007,0 0.011,0 0.228,0 0.329,0.138 0.47,0.297 L 3.399,2.5 c 0.067,0.068 0.097,0.142 0.097,0.21 0,0.167 -0.168,0.227 -0.295,0.227 l -1.153,0 C 1.807,2.945 1.689,2.821 1.547,2.637 L -0.17,0.465 C -0.239,0.396 -0.26,0.299 -0.26,0.226 -0.26,0.098 -0.139,0 0,0"
             id="path2492"
             style="fill:#e20514;fill-opacity:1;fill-rule:nonzero;stroke:none" />
        </g>
        <g
           transform="translate(468.1055,548.104)"
           id="g2494">
          <path
             d="m 0,0 0,-0.122 c -0.013,-1.823 -1.073,-2.306 -3.218,-2.325 -0.382,0 -1.087,0.015 -1.82,0.033 l 0,4.595 c 0.444,0.042 1.315,0.042 1.82,0.042 C -1.037,2.206 -0.011,1.684 0,0 m -0.907,-3.718 c 1.557,0.455 2.695,1.65 2.688,3.596 l 0,0.122 c -0.004,2.905 -2.222,3.862 -4.999,3.866 -1.018,0 -2.33,-0.052 -3.09,-0.14 C -6.637,3.709 -6.837,3.52 -6.819,3.237 l 0,-12.241 c 0,-0.242 0.177,-0.454 0.419,-0.455 l 0.945,0 c 0.264,0.003 0.417,0.236 0.417,0.455 l 0,5.033 c 0.852,-0.033 1.262,-0.048 1.82,-0.048 l 0.298,0 0.098,0 3.101,-5.162 c 0.126,-0.231 0.303,-0.28 0.483,-0.28 0.02,0 0.04,0 0.06,0.002 l 1.119,0 c 0.198,0 0.33,0.161 0.33,0.333 10e-4,0.073 -0.023,0.147 -0.067,0.214 l -3.111,5.194 z"
             id="path2496"
             style="fill:#e20514;fill-opacity:1;fill-rule:nonzero;stroke:none" />
        </g>
        <g
           transform="translate(474.2109,551.8472)"
           id="g2498">
          <path
             d="m 0,0 -0.961,0 c -0.257,0 -0.421,-0.214 -0.421,-0.437 l 0,-12.31 c 0,-0.242 0.177,-0.454 0.421,-0.456 l 0.961,0 c 0.263,0.004 0.421,0.238 0.421,0.456 l 0,12.31 C 0.421,-0.191 0.233,0 0,0"
             id="path2500"
             style="fill:#e20514;fill-opacity:1;fill-rule:nonzero;stroke:none" />
        </g>
        <g
           transform="translate(479.2646,546.3755)"
           id="g2502">
          <path
             d="M 0,0 C 0.017,2.913 1.169,3.937 3.026,3.952 4.898,3.937 6.017,2.913 6.034,0 l 0,-2.256 C 6.019,-5.171 4.881,-6.196 3.026,-6.21 1.154,-6.196 0.017,-5.171 0,-2.256 L 0,0 z M 3.026,5.594 C 0.233,5.588 -1.813,3.918 -1.817,0 l 0,-2.256 c -0.008,-3.485 1.628,-5.203 3.952,-5.53 l 0,-0.698 c 0.002,-1.882 1.005,-2.391 2.727,-2.393 0.886,0.014 1.47,0.075 1.519,0.523 l 0,0.593 c 0,0.274 -0.259,0.386 -0.486,0.386 l -1.033,0 c -0.889,0.037 -0.944,0.05 -0.98,0.91 l 0,0.659 c 2.345,0.312 3.981,2.05 3.971,5.55 L 7.853,0 C 7.847,3.918 5.817,5.588 3.026,5.594"
             id="path2504"
             style="fill:#e20514;fill-opacity:1;fill-rule:nonzero;stroke:none" />
        </g>
        <g
           transform="translate(498.4336,551.8481)"
           id="g2506">
          <path
             d="M 0,0 -0.943,0 C -1.198,0 -1.38,-0.208 -1.38,-0.438 l 0,-7.938 c -0.02,-2.262 -0.648,-3.361 -2.763,-3.376 -2.115,0.015 -2.746,1.133 -2.765,3.376 l 0,7.938 C -6.908,-0.183 -7.116,0 -7.344,0 L -8.29,0 c -0.252,0 -0.434,-0.208 -0.434,-0.438 l 0,-7.938 c 0.004,-3.376 1.704,-4.945 4.581,-4.949 2.872,0.004 4.577,1.573 4.581,4.949 l 0,7.938 C 0.438,-0.183 0.229,0 0,0"
             id="path2508"
             style="fill:#e20514;fill-opacity:1;fill-rule:nonzero;stroke:none" />
        </g>
        <g
           transform="translate(505.6221,550.3281)"
           id="g2510">
          <path
             d="m 0,0 3.376,0 c 0.179,0 0.297,0.152 0.297,0.312 l 0,0.876 C 3.669,1.333 3.589,1.497 3.409,1.535 2.661,1.607 1.019,1.643 -0.017,1.643 -2.486,1.639 -3.845,0.658 -3.847,-1.714 l 0,-6.736 c 0.002,-2.372 1.361,-3.352 3.83,-3.354 1.036,0 2.746,0.016 3.42,0.086 l -0.01,0.103 0.016,-0.101 c 0.18,0.038 0.26,0.203 0.264,0.348 l 0,0.892 c 0,0.16 -0.118,0.314 -0.297,0.314 l -3.376,0 c -1.839,0.032 -2.016,0.403 -2.046,1.712 l 0,2.837 5.266,0 c 0.249,0 0.453,0.202 0.453,0.453 l 0,0.664 c 0,0.251 -0.204,0.454 -0.453,0.454 l -5.266,0 0,2.328 C -2.016,-0.403 -1.839,-0.034 0,0"
             id="path2512"
             style="fill:#e20514;fill-opacity:1;fill-rule:nonzero;stroke:none" />
        </g>
      </g>
    </g>
  </g>
</svg>
